<?xml version="1.0" standalone="no"?>
<!DOCTYPE svg PUBLIC "-//W3C//DTD SVG 20010904//EN"
 "http://www.w3.org/TR/2001/REC-SVG-20010904/DTD/svg10.dtd">
<svg version="1.0" xmlns="http://www.w3.org/2000/svg"
 width="600.000000pt" height="600.000000pt" viewBox="0 0 600.000000 600.000000"
 preserveAspectRatio="xMidYMid meet">
<metadata>
Created by potrace 1.11, written by Peter Selinger 2001-2013
</metadata>
<g transform="translate(0.000000,600.000000) scale(0.100000,-0.100000)"
fill="#000000" stroke="none">
<path d="M2927 5984 c-1 -1 -49 -4 -107 -8 -58 -4 -121 -8 -140 -11 -19 -2
-55 -7 -80 -10 -25 -3 -52 -8 -60 -10 -8 -2 -31 -6 -50 -9 -54 -9 -77 -14
-185 -41 -55 -14 -108 -27 -117 -29 -30 -8 -196 -66 -235 -83 -21 -9 -44 -18
-51 -19 -7 -1 -81 -36 -165 -77 -134 -66 -298 -162 -380 -222 -91 -66 -173
-128 -177 -134 -3 -3 -27 -24 -55 -46 -27 -21 -108 -98 -180 -170 -324 -326
-562 -717 -704 -1155 -32 -98 -85 -315 -95 -385 -8 -52 -17 -115 -22 -140 -17
-91 -23 -432 -11 -590 10 -132 12 -146 41 -305 28 -155 79 -339 141 -500 41
-109 136 -313 147 -318 5 -2 8 -8 8 -13 0 -13 87 -161 149 -253 67 -99 98
-166 123 -260 20 -76 21 -108 23 -531 1 -447 1 -450 24 -497 51 -105 140 -162
256 -162 74 0 54 -6 715 234 129 47 200 62 294 62 88 0 127 -6 276 -42 63 -16
131 -31 150 -34 19 -3 45 -8 58 -10 203 -42 667 -53 833 -21 13 3 47 7 74 11
80 9 322 63 405 90 8 3 15 5 15 4 0 -1 169 60 190 69 11 5 45 19 75 31 134 54
386 190 476 257 17 13 34 23 37 23 4 0 15 6 24 14 10 8 69 54 132 103 63 48
174 147 246 218 113 112 151 152 228 245 40 48 119 155 162 220 28 41 52 77
55 80 6 6 31 50 104 185 134 245 236 535 291 825 14 76 17 97 32 205 10 76 10
542 0 615 -4 30 -9 66 -11 80 -2 14 -7 48 -11 75 -20 139 -89 406 -135 520 -4
11 -23 58 -41 105 -82 215 -234 476 -402 695 -113 147 -358 394 -492 495 -55
41 -109 83 -119 93 -11 9 -25 17 -32 17 -7 0 -14 4 -16 9 -11 30 -428 254
-568 304 -25 9 -58 22 -75 28 -16 7 -34 13 -40 15 -5 2 -48 15 -95 29 -78 24
-259 69 -320 80 -139 24 -182 29 -318 41 -63 5 -291 11 -295 8z"/>
</g>
</svg>
